<svg width="521px" height="521px" version="1.1" baseProfile="full" xmlns="http://www.w3.org/2000/svg" xmlns:xlink="http://www.w3.org/1999/xlink" xmlns:ev="http://www.w3.org/2001/xml-events">
<polygon fill="rgb(247,132,25)" stroke="rgb(247,132,25)" points="253.7016986757517,106.53390765190125 208.23290540277958,107.20078095793724 192.52723842859268,72.0077987909317"></polygon>
<polygon fill="rgb(247,132,25)" stroke="rgb(247,132,25)" points="192.52723842859268,72.0077987909317 273.32752999663353,70.59364426136017 253.7016986757517,106.53390765190125"></polygon>
<polygon fill="rgb(228,119,25)" stroke="rgb(228,119,25)" points="208.23290540277958,107.20078095793724 97.05933380126953,25.279139041900635 192.52723842859268,72.0077987909317"></polygon>
<polygon fill="rgb(225,119,25)" stroke="rgb(225,119,25)" points="365.8887609243393,19.52481919527054 253.7016986757517,106.53390765190125 273.32752999663353,70.59364426136017"></polygon>
<polygon fill="rgb(119,57,0)" stroke="rgb(119,57,0)" points="141.159439265728,148.16025269031525 89.42030918598175,133.05544924736023 87.10941982269287,121.45242899656296"></polygon>
<polygon fill="rgb(119,57,0)" stroke="rgb(119,57,0)" points="90.63880348205566,147.02109110355377 89.42030918598175,133.05544924736023 141.159439265728,148.16025269031525"></polygon>
<polygon fill="rgb(119,57,0)" stroke="rgb(119,57,0)" points="143.685684800148,80.84420073032379 141.159439265728,148.16025269031525 87.10941982269287,121.45242899656296"></polygon>
<polygon fill="rgb(119,57,0)" stroke="rgb(119,57,0)" points="162.80562508106232,149.88144946098328 141.159439265728,148.16025269031525 143.685684800148,80.84420073032379"></polygon>
<polygon fill="rgb(119,57,0)" stroke="rgb(119,57,0)" points="97.15706384181976,167.5840934664011 141.159439265728,148.16025269031525 162.80562508106232,149.88144946098328"></polygon>
<polygon fill="rgb(119,57,0)" stroke="rgb(119,57,0)" points="90.63880348205566,147.02109110355377 141.159439265728,148.16025269031525 97.15706384181976,167.5840934664011"></polygon>
<polygon fill="rgb(119,57,0)" stroke="rgb(119,57,0)" points="325.11767649650574,146.05317145586014 379.55106353759766,117.45773661136627 377.09651505947113,129.39595195651054"></polygon>
<polygon fill="rgb(119,57,0)" stroke="rgb(119,57,0)" points="379.55106353759766,117.45773661136627 325.11767649650574,146.05317145586014 319.8003784418106,77.8748249411583"></polygon>
<polygon fill="rgb(119,57,0)" stroke="rgb(119,57,0)" points="319.8003784418106,77.8748249411583 325.11767649650574,146.05317145586014 301.58226174116135,148.31380939483643"></polygon>
<polygon fill="rgb(119,57,0)" stroke="rgb(119,57,0)" points="375.7206233739853,143.71621775627136 325.11767649650574,146.05317145586014 377.09651505947113,129.39595195651054"></polygon>
<polygon fill="rgb(119,57,0)" stroke="rgb(119,57,0)" points="368.9375978708267,164.88578452169895 301.58226174116135,148.31380939483643 325.11767649650574,146.05317145586014"></polygon>
<polygon fill="rgb(119,57,0)" stroke="rgb(119,57,0)" points="375.7206233739853,143.71621775627136 368.9375978708267,164.88578452169895 325.11767649650574,146.05317145586014"></polygon>
<polygon fill="rgb(119,57,0)" stroke="rgb(119,57,0)" points="80.19399082660675,125.31728139519691 87.10941982269287,121.45242899656296 89.42030918598175,133.05544924736023"></polygon>
<polygon fill="rgb(119,57,0)" stroke="rgb(119,57,0)" points="87.10941982269287,121.45242899656296 80.12191021442413,71.47052824497223 143.685684800148,80.84420073032379"></polygon>
<polygon fill="rgb(119,57,0)" stroke="rgb(119,57,0)" points="90.63880348205566,147.02109110355377 81.53838908672333,137.7940720319748 89.42030918598175,133.05544924736023"></polygon>
<polygon fill="rgb(119,57,0)" stroke="rgb(119,57,0)" points="143.685684800148,80.84420073032379 208.23290540277958,107.20078095793724 162.80562508106232,149.88144946098328"></polygon>
<polygon fill="rgb(119,57,0)" stroke="rgb(119,57,0)" points="97.15706384181976,167.5840934664011 84.17948520183563,150.62835112214088 90.63880348205566,147.02109110355377"></polygon>
<polygon fill="rgb(225,119,25)" stroke="rgb(225,119,25)" points="183.69035133719444,279.22418558597565 86.54666662216187,316.0116203427315 160.63703495264053,281.1393683850765"></polygon>
<polygon fill="rgb(225,119,25)" stroke="rgb(225,119,25)" points="160.63703495264053,281.1393683850765 179.6326054930687,276.40376430749893 183.69035133719444,279.22418558597565"></polygon>
<polygon fill="rgb(119,57,0)" stroke="rgb(119,57,0)" points="97.05933380126953,25.279139041900635 208.23290540277958,107.20078095793724 143.685684800148,80.84420073032379"></polygon>
<polygon fill="rgb(119,57,0)" stroke="rgb(119,57,0)" points="143.685684800148,80.84420073032379 80.12191021442413,71.47052824497223 97.05933380126953,25.279139041900635"></polygon>
<polygon fill="rgb(119,57,0)" stroke="rgb(119,57,0)" points="301.58226174116135,148.31380939483643 253.7016986757517,106.53390765190125 319.8003784418106,77.8748249411583"></polygon>
<polygon fill="rgb(119,57,0)" stroke="rgb(119,57,0)" points="386.501403093338,121.22645890712738 377.09651505947113,129.39595195651054 379.55106353759766,117.45773661136627"></polygon>
<polygon fill="rgb(119,57,0)" stroke="rgb(119,57,0)" points="319.8003784418106,77.8748249411583 385.4341274499893,66.06527531147003 379.55106353759766,117.45773661136627"></polygon>
<polygon fill="rgb(225,119,25)" stroke="rgb(225,119,25)" points="282.9032084941864,279.1330787539482 284.63900461792946,276.28358536958694 300.8419570326805,281.0319285094738"></polygon>
<polygon fill="rgb(225,119,25)" stroke="rgb(225,119,25)" points="300.8419570326805,281.0319285094738 382.00007486343384,316.6155040860176 282.9032084941864,279.1330787539482"></polygon>
<polygon fill="rgb(247,132,25)" stroke="rgb(247,132,25)" points="97.15706384181976,167.5840934664011 162.80562508106232,149.88144946098328 140.17891001701355,165.88984858989716"></polygon>
<polygon fill="rgb(119,57,0)" stroke="rgb(119,57,0)" points="375.7206233739853,143.71621775627136 377.09651505947113,129.39595195651054 385.0098170042038,134.0473109781742"></polygon>
<polygon fill="rgb(247,132,25)" stroke="rgb(247,132,25)" points="140.17891001701355,165.88984858989716 70.86531186103821,239.41245117783546 97.15706384181976,167.5840934664011"></polygon>
<polygon fill="rgb(119,57,0)" stroke="rgb(119,57,0)" points="365.8887609243393,19.52481919527054 385.4341274499893,66.06527531147003 319.8003784418106,77.8748249411583"></polygon>
<polygon fill="rgb(119,57,0)" stroke="rgb(119,57,0)" points="319.8003784418106,77.8748249411583 253.7016986757517,106.53390765190125 365.8887609243393,19.52481919527054"></polygon>
<polygon fill="rgb(228,119,25)" stroke="rgb(228,119,25)" points="160.63703495264053,281.1393683850765 86.54666662216187,316.0116203427315 70.86531186103821,239.41245117783546"></polygon>
<polygon fill="rgb(119,57,0)" stroke="rgb(119,57,0)" points="368.9375978708267,164.88578452169895 375.7206233739853,143.71621775627136 382.2043218612671,147.25841841101646"></polygon>
<polygon fill="rgb(228,119,25)" stroke="rgb(228,119,25)" points="162.80562508106232,149.88144946098328 208.23290540277958,107.20078095793724 209.5057007521391,163.02074843645096"></polygon>
<polygon fill="rgb(228,119,25)" stroke="rgb(228,119,25)" points="209.5057007521391,163.02074843645096 140.17891001701355,165.88984858989716 162.80562508106232,149.88144946098328"></polygon>
<polygon fill="rgb(228,119,25)" stroke="rgb(228,119,25)" points="70.86531186103821,239.41245117783546 127.73506683111191,222.22437069565058 160.63703495264053,281.1393683850765"></polygon>
<polygon fill="rgb(247,132,25)" stroke="rgb(247,132,25)" points="127.73506683111191,222.22437069565058 70.86531186103821,239.41245117783546 140.17891001701355,165.88984858989716"></polygon>
<polygon fill="rgb(247,132,25)" stroke="rgb(247,132,25)" points="368.9375978708267,164.88578452169895 320.2698578238487,164.08351716399193 301.58226174116135,148.31380939483643"></polygon>
<polygon fill="rgb(228,119,25)" stroke="rgb(228,119,25)" points="301.58226174116135,148.31380939483643 320.2698578238487,164.08351716399193 247.97505408525467,162.62821273505688"></polygon>
<polygon fill="rgb(228,119,25)" stroke="rgb(228,119,25)" points="247.97505408525467,162.62821273505688 253.7016986757517,106.53390765190125 301.58226174116135,148.31380939483643"></polygon>
<polygon fill="rgb(247,132,25)" stroke="rgb(247,132,25)" points="320.2698578238487,164.08351716399193 368.9375978708267,164.88578452169895 397.73846089839935,238.05782270431519"></polygon>
<polygon fill="rgb(228,119,25)" stroke="rgb(228,119,25)" points="397.73846089839935,238.05782270431519 382.00007486343384,316.6155040860176 300.8419570326805,281.0319285094738"></polygon>
<polygon fill="rgb(247,132,25)" stroke="rgb(247,132,25)" points="208.23290540277958,107.20078095793724 253.7016986757517,106.53390765190125 247.97505408525467,162.62821273505688"></polygon>
<polygon fill="rgb(247,132,25)" stroke="rgb(247,132,25)" points="247.97505408525467,162.62821273505688 209.5057007521391,163.02074843645096 208.23290540277958,107.20078095793724"></polygon>
<polygon fill="rgb(228,119,25)" stroke="rgb(228,119,25)" points="300.8419570326805,281.0319285094738 332.6851644515991,221.09550029039383 397.73846089839935,238.05782270431519"></polygon>
<polygon fill="rgb(247,132,25)" stroke="rgb(247,132,25)" points="320.2698578238487,164.08351716399193 397.73846089839935,238.05782270431519 332.6851644515991,221.09550029039383"></polygon>
<polygon fill="rgb(205,98,0)" stroke="rgb(205,98,0)" points="166.98866468667984,190.44073567911983 140.17891001701355,165.88984858989716 209.5057007521391,163.02074843645096"></polygon>
<polygon fill="rgb(228,116,36)" stroke="rgb(228,116,36)" points="140.17891001701355,165.88984858989716 166.98866468667984,190.44073567911983 166.85105180740356,217.7323522567749"></polygon>
<polygon fill="rgb(247,132,25)" stroke="rgb(247,132,25)" points="140.17891001701355,165.88984858989716 166.85105180740356,217.7323522567749 127.73506683111191,222.22437069565058"></polygon>
<polygon fill="rgb(205,98,0)" stroke="rgb(205,98,0)" points="160.63703495264053,281.1393683850765 127.73506683111191,222.22437069565058 166.85105180740356,217.7323522567749"></polygon>
<polygon fill="rgb(205,98,0)" stroke="rgb(205,98,0)" points="247.97505408525467,162.62821273505688 320.2698578238487,164.08351716399193 291.4688030183315,189.4399616457522"></polygon>
<polygon fill="rgb(228,116,36)" stroke="rgb(228,116,36)" points="320.2698578238487,164.08351716399193 290.917176425457,217.00644217431545 291.4688030183315,189.4399616457522"></polygon>
<polygon fill="rgb(247,132,25)" stroke="rgb(247,132,25)" points="332.6851644515991,221.09550029039383 290.917176425457,217.00644217431545 320.2698578238487,164.08351716399193"></polygon>
<polygon fill="rgb(205,98,0)" stroke="rgb(205,98,0)" points="300.8419570326805,281.0319285094738 290.917176425457,217.00644217431545 332.6851644515991,221.09550029039383"></polygon>
<polygon fill="rgb(205,98,0)" stroke="rgb(205,98,0)" points="209.5057007521391,163.02074843645096 192.41906172037125,178.26735697686672 166.98866468667984,190.44073567911983"></polygon>
<polygon fill="rgb(36,51,67)" stroke="rgb(36,51,67)" points="202.1005319058895,196.77512766048312 166.98866468667984,190.44073567911983 192.41906172037125,178.26735697686672"></polygon>
<polygon fill="rgb(247,132,25)" stroke="rgb(247,132,25)" points="166.85105180740356,217.7323522567749 166.98866468667984,190.44073567911983 202.1005319058895,196.77512766048312"></polygon>
<polygon fill="rgb(205,98,0)" stroke="rgb(205,98,0)" points="291.4688030183315,189.4399616457522 265.45950508117676,177.6101728901267 247.97505408525467,162.62821273505688"></polygon>
<polygon fill="rgb(205,98,0)" stroke="rgb(205,98,0)" points="192.41906172037125,178.26735697686672 209.5057007521391,163.02074843645096 202.1005319058895,196.77512766048312"></polygon>
<polygon fill="rgb(228,116,36)" stroke="rgb(228,116,36)" points="202.1005319058895,196.77512766048312 209.5057007521391,163.02074843645096 210.0483904927969,180.43338157981634"></polygon>
<polygon fill="rgb(247,132,25)" stroke="rgb(247,132,25)" points="210.0483904927969,180.43338157981634 209.5057007521391,163.02074843645096 247.97505408525467,162.62821273505688"></polygon>
<polygon fill="rgb(205,98,0)" stroke="rgb(205,98,0)" points="265.45950508117676,177.6101728901267 254.51336047053337,196.38148199860007 247.97505408525467,162.62821273505688"></polygon>
<polygon fill="rgb(36,51,67)" stroke="rgb(36,51,67)" points="254.51336047053337,196.38148199860007 265.45950508117676,177.6101728901267 291.4688030183315,189.4399616457522"></polygon>
<polygon fill="rgb(192,172,157)" stroke="rgb(192,172,157)" points="173.6437429189682,285.568671554327 160.63703495264053,281.1393683850765 196.69901195168495,267.00878888368607"></polygon>
<polygon fill="rgb(247,132,25)" stroke="rgb(247,132,25)" points="290.917176425457,217.00644217431545 254.51336047053337,196.38148199860007 291.4688030183315,189.4399616457522"></polygon>
<polygon fill="rgb(247,132,25)" stroke="rgb(247,132,25)" points="247.97505408525467,162.62821273505688 245.64076694101095,180.11975037306547 210.0483904927969,180.43338157981634"></polygon>
<polygon fill="rgb(225,119,25)" stroke="rgb(225,119,25)" points="254.51336047053337,196.38148199860007 245.64076694101095,180.11975037306547 247.97505408525467,162.62821273505688"></polygon>
<polygon fill="rgb(228,119,25)" stroke="rgb(228,119,25)" points="199.26221135258675,217.1342034637928 160.63703495264053,281.1393683850765 166.85105180740356,217.7323522567749"></polygon>
<polygon fill="rgb(214,194,178)" stroke="rgb(214,194,178)" points="195.4877703487873,247.4617979079485 196.69901195168495,267.00878888368607 160.63703495264053,281.1393683850765"></polygon>
<polygon fill="rgb(214,194,178)" stroke="rgb(214,194,178)" points="160.63703495264053,281.1393683850765 199.26221135258675,217.1342034637928 195.4877703487873,247.4617979079485"></polygon>
<polygon fill="rgb(192,172,157)" stroke="rgb(192,172,157)" points="252.81554858386517,266.9024758338928 300.8419570326805,281.0319285094738 284.95895648002625,285.5229817330837"></polygon>
<polygon fill="rgb(228,119,25)" stroke="rgb(228,119,25)" points="247.94448991119862,216.84777323901653 290.917176425457,217.00644217431545 300.8419570326805,281.0319285094738"></polygon>
<polygon fill="rgb(214,194,178)" stroke="rgb(214,194,178)" points="251.86233200132847,247.26680959761143 300.8419570326805,281.0319285094738 252.81554858386517,266.9024758338928"></polygon>
<polygon fill="rgb(214,194,178)" stroke="rgb(214,194,178)" points="300.8419570326805,281.0319285094738 251.86233200132847,247.26680959761143 247.94448991119862,216.84777323901653"></polygon>
<polygon fill="rgb(192,172,157)" stroke="rgb(192,172,157)" points="196.69901195168495,267.00878888368607 198.75019910931587,278.53922376036644 173.6437429189682,285.568671554327"></polygon>
<polygon fill="rgb(192,172,157)" stroke="rgb(192,172,157)" points="201.2875607907772,285.5573261976242 173.6437429189682,285.568671554327 198.75019910931587,278.53922376036644"></polygon>
<polygon fill="rgb(192,172,157)" stroke="rgb(192,172,157)" points="256.94434466958046,285.53448128700256 201.2875607907772,285.5573261976242 198.75019910931587,278.53922376036644"></polygon>
<polygon fill="rgb(247,132,25)" stroke="rgb(247,132,25)" points="199.26221135258675,217.1342034637928 166.85105180740356,217.7323522567749 202.1005319058895,196.77512766048312"></polygon>
<polygon fill="rgb(192,172,157)" stroke="rgb(192,172,157)" points="198.75019910931587,278.53922376036644 250.1467300951481,278.4892697930336 256.94434466958046,285.53448128700256"></polygon>
<polygon fill="rgb(192,172,157)" stroke="rgb(192,172,157)" points="256.94434466958046,285.53448128700256 250.1467300951481,278.4892697930336 284.95895648002625,285.5229817330837"></polygon>
<polygon fill="rgb(192,172,157)" stroke="rgb(192,172,157)" points="284.95895648002625,285.5229817330837 250.1467300951481,278.4892697930336 252.81554858386517,266.9024758338928"></polygon>
<polygon fill="rgb(228,116,36)" stroke="rgb(228,116,36)" points="210.0483904927969,180.43338157981634 205.56422638893127,212.79017432034016 202.1005319058895,196.77512766048312"></polygon>
<polygon fill="rgb(247,132,25)" stroke="rgb(247,132,25)" points="202.1005319058895,196.77512766048312 205.56422638893127,212.79017432034016 199.26221135258675,217.1342034637928"></polygon>
<polygon fill="rgb(247,132,25)" stroke="rgb(247,132,25)" points="254.51336047053337,196.38148199860007 290.917176425457,217.00644217431545 247.94448991119862,216.84777323901653"></polygon>
<polygon fill="rgb(228,116,36)" stroke="rgb(228,116,36)" points="245.64076694101095,180.11975037306547 254.51336047053337,196.38148199860007 241.63534683734179,212.5655238032341"></polygon>
<polygon fill="rgb(247,132,25)" stroke="rgb(247,132,25)" points="247.94448991119862,216.84777323901653 241.63534683734179,212.5655238032341 254.51336047053337,196.38148199860007"></polygon>
<polygon fill="rgb(247,132,25)" stroke="rgb(247,132,25)" points="210.0483904927969,180.43338157981634 245.64076694101095,180.11975037306547 241.63534683734179,212.5655238032341"></polygon>
<polygon fill="rgb(247,132,25)" stroke="rgb(247,132,25)" points="241.63534683734179,212.5655238032341 205.56422638893127,212.79017432034016 210.0483904927969,180.43338157981634"></polygon>
<polygon fill="rgb(192,172,157)" stroke="rgb(192,172,157)" points="198.75019910931587,278.53922376036644 196.69901195168495,267.00878888368607 195.4877703487873,247.4617979079485"></polygon>
<polygon fill="rgb(192,172,157)" stroke="rgb(192,172,157)" points="251.86233200132847,247.26680959761143 252.81554858386517,266.9024758338928 250.1467300951481,278.4892697930336"></polygon>
<polygon fill="rgb(192,172,157)" stroke="rgb(192,172,157)" points="195.4877703487873,247.4617979079485 198.2718491256237,241.18044976890087 198.75019910931587,278.53922376036644"></polygon>
<polygon fill="rgb(192,172,157)" stroke="rgb(192,172,157)" points="198.75019910931587,278.53922376036644 198.2718491256237,241.18044976890087 248.0176706314087,240.98343020677567"></polygon>
<polygon fill="rgb(192,172,157)" stroke="rgb(192,172,157)" points="248.0176706314087,240.98343020677567 250.1467300951481,278.4892697930336 198.75019910931587,278.53922376036644"></polygon>
<polygon fill="rgb(192,172,157)" stroke="rgb(192,172,157)" points="250.1467300951481,278.4892697930336 248.0176706314087,240.98343020677567 251.86233200132847,247.26680959761143"></polygon>
<polygon fill="rgb(0,0,0)" stroke="rgb(0,0,0)" points="198.2718491256237,241.18044976890087 195.4877703487873,247.4617979079485 199.26221135258675,217.1342034637928"></polygon>
<polygon fill="rgb(0,0,0)" stroke="rgb(0,0,0)" points="199.26221135258675,217.1342034637928 200.08433550596237,216.77153161168098 198.2718491256237,241.18044976890087"></polygon>
<polygon fill="rgb(0,0,0)" stroke="rgb(0,0,0)" points="204.1382248699665,212.2815310806036 200.08433550596237,216.77153161168098 199.26221135258675,217.1342034637928"></polygon>
<polygon fill="rgb(0,0,0)" stroke="rgb(0,0,0)" points="247.94448991119862,216.84777323901653 251.86233200132847,247.26680959761143 248.0176706314087,240.98343020677567"></polygon>
<polygon fill="rgb(0,0,0)" stroke="rgb(0,0,0)" points="248.0176706314087,240.98343020677567 244.94762217253447,216.50628571212292 247.94448991119862,216.84777323901653"></polygon>
<polygon fill="rgb(0,0,0)" stroke="rgb(0,0,0)" points="247.94448991119862,216.84777323901653 244.94762217253447,216.50628571212292 240.9080228805542,212.05100624263287"></polygon>
<polygon fill="rgb(0,0,0)" stroke="rgb(0,0,0)" points="248.0176706314087,240.98343020677567 198.2718491256237,241.18044976890087 200.08433550596237,216.77153161168098"></polygon>
<polygon fill="rgb(0,0,0)" stroke="rgb(0,0,0)" points="200.08433550596237,216.77153161168098 244.94762217253447,216.50628571212292 248.0176706314087,240.98343020677567"></polygon>
<polygon fill="rgb(0,0,0)" stroke="rgb(0,0,0)" points="200.08433550596237,216.77153161168098 204.1382248699665,212.2815310806036 240.9080228805542,212.05100624263287"></polygon>
<polygon fill="rgb(0,0,0)" stroke="rgb(0,0,0)" points="240.9080228805542,212.05100624263287 244.94762217253447,216.50628571212292 200.08433550596237,216.77153161168098"></polygon>
</svg>